<svg xmlns="http://www.w3.org/2000/svg" width="1297" height="320" viewBox="0 0 1297 320" fill="none"><path d="M53.7284 35.5837C74.2528 15.9314 106.799 16.6638 126.421 37.2194L200.515 114.838C220.137 135.393 219.406 167.988 198.881 187.64C178.357 207.293 145.812 206.56 126.189 186.005L52.0951 108.386C32.4728 87.8308 33.2041 55.2359 53.7284 35.5837Z" fill="url(#paint0_linear_322_1235)"></path><path d="M38.5804 130.737C59.8876 110.335 93.6743 111.095 114.045 132.435L185.428 207.214C205.799 228.554 205.04 262.392 183.733 282.794C162.425 303.195 128.639 302.435 108.268 281.095L36.8848 206.316C16.514 184.977 17.2732 151.139 38.5804 130.737Z" fill="url(#paint1_linear_322_1235)"></path><path d="M286.463 218.273H401.208L384.173 188.207H327.158L398.985 101.571V72.6177H289.799L303.523 101.571L358.29 102.684L286.463 189.32V218.273Z" fill="white"></path><path d="M477.578 221.168C504.263 221.168 524.721 206.692 532.504 184.866H500.927C496.035 191.547 488.252 194.22 477.578 194.22C463.791 194.22 452.894 187.093 449.781 172.617H536.062V163.263C536.062 129.855 512.268 105.357 477.578 105.357C442.887 105.357 418.426 129.855 418.426 163.263C418.426 196.67 442.887 221.168 477.578 221.168ZM450.448 151.459C454.228 138.764 464.458 132.305 477.578 132.305C490.476 132.305 500.927 138.541 504.93 151.459H450.448Z" fill="white"></path><path d="M556.945 218.273H586.965V161.258C586.965 142.55 597.194 133.419 611.204 133.419C625.658 133.419 635.443 142.105 635.443 161.258V218.273H665.464V161.258C665.464 121.392 641.002 105.357 616.986 105.357C604.31 105.357 593.859 111.147 586.965 121.838V60.146H556.945V218.273Z" fill="white"></path><path d="M687.16 218.273H717.181V161.258C717.181 142.105 726.965 133.419 741.42 133.419C755.874 133.419 765.658 142.105 765.658 161.258V218.273H795.679V161.258C795.679 124.065 773.886 105.357 741.42 105.357C708.953 105.357 687.16 124.288 687.16 161.258V218.273Z" fill="white"></path><path d="M863.044 221.168C889.951 221.168 908.408 206.246 908.408 175.289V172.171H878.388V175.289C878.388 188.652 871.939 193.106 863.044 193.106C853.926 193.106 847.478 188.429 847.478 175.289V135.423H901.737V108.252H847.478V58.1758H818.961L817.457 175.289C817.457 206.246 835.914 221.168 863.044 221.168Z" fill="white"></path><path d="M979.658 221.168C1006.34 221.168 1026.8 206.692 1034.58 184.866H1003.01C998.115 191.547 990.332 194.22 979.658 194.22C965.871 194.22 954.974 187.093 951.861 172.617H1038.14V163.263C1038.14 129.855 1014.35 105.357 979.658 105.357C944.967 105.357 920.506 129.855 920.506 163.263C920.506 196.67 944.967 221.168 979.658 221.168ZM952.528 151.459C956.308 138.764 966.538 132.305 979.658 132.305C992.556 132.305 1003.01 138.541 1007.01 151.459H952.528Z" fill="white"></path><path d="M1110.17 221.168C1140.42 221.168 1162.43 202.683 1167.32 175.957H1137.08C1132.86 186.425 1122.85 193.106 1110.17 193.106C1093.05 193.106 1081.49 180.857 1081.49 163.263C1081.49 145.668 1093.05 133.419 1110.17 133.419C1122.85 133.419 1132.86 140.1 1137.08 150.568H1167.32C1162.43 123.842 1140.42 105.357 1110.17 105.357C1075.48 105.357 1051.02 129.855 1051.02 163.263C1051.02 196.67 1075.48 221.168 1110.17 221.168Z" fill="white"></path><path d="M1188.02 218.273H1218.04V161.258C1218.04 142.55 1228.27 133.419 1242.28 133.419C1256.74 133.419 1266.52 142.105 1266.52 161.258V218.273H1296.54V161.258C1296.54 121.392 1272.08 105.357 1248.06 105.357C1235.39 105.357 1224.94 111.147 1218.04 121.838V60.146H1188.02V218.273Z" fill="white"></path><defs><linearGradient id="paint0_linear_322_1235" x1="72.5746" y1="31.5913" x2="201.735" y2="173.484" gradientUnits="userSpaceOnUse"><stop stop-color="#0249FF"></stop><stop offset="1" stop-color="#0066FF" stop-opacity="0.16"></stop></linearGradient><linearGradient id="paint1_linear_322_1235" x1="50.6262" y1="138.826" x2="210.594" y2="253.1" gradientUnits="userSpaceOnUse"><stop stop-color="#D2BD00"></stop><stop offset="1" stop-color="#FFDE58" stop-opacity="0.17"></stop></linearGradient></defs></svg>